%TF.GenerationSoftware,KiCad,Pcbnew,8.0.2*%
%TF.CreationDate,2024-05-23T15:12:40+02:00*%
%TF.ProjectId,gatemania_and,67617465-6d61-46e6-9961-5f616e642e6b,1.0*%
%TF.SameCoordinates,Original*%
%TF.FileFunction,Plated,1,2,PTH,Drill*%
%TF.FilePolarity,Positive*%
%FSLAX46Y46*%
G04 Gerber Fmt 4.6, Leading zero omitted, Abs format (unit mm)*
G04 Created by KiCad (PCBNEW 8.0.2) date 2024-05-23 15:12:40*
%MOMM*%
%LPD*%
G01*
G04 APERTURE LIST*
%TA.AperFunction,ComponentDrill*%
%ADD10C,0.740000*%
%TD*%
%TA.AperFunction,ComponentDrill*%
%ADD11C,0.800000*%
%TD*%
%TA.AperFunction,ComponentDrill*%
%ADD12C,0.900000*%
%TD*%
%TA.AperFunction,ComponentDrill*%
%ADD13C,1.170000*%
%TD*%
%TA.AperFunction,ComponentDrill*%
%ADD14C,1.500000*%
%TD*%
G04 APERTURE END LIST*
D10*
%TO.C,U1*%
X156992500Y-91260000D03*
X156992500Y-93800000D03*
X156992500Y-96340000D03*
X156992500Y-98880000D03*
X156992500Y-101420000D03*
X156992500Y-103960000D03*
X156992500Y-106500000D03*
X164932500Y-91260000D03*
X164932500Y-93800000D03*
X164932500Y-96340000D03*
X164932500Y-98880000D03*
X164932500Y-101420000D03*
X164932500Y-103960000D03*
X164932500Y-106500000D03*
D11*
%TO.C,S1*%
X110200000Y-99900000D03*
X110200000Y-101900000D03*
X110200000Y-103900000D03*
%TO.C,S2*%
X119716666Y-99900000D03*
X119716666Y-101900000D03*
X119716666Y-103900000D03*
%TO.C,S3*%
X129233332Y-99900000D03*
X129233332Y-101900000D03*
X129233332Y-103900000D03*
%TO.C,S4*%
X138750000Y-99900000D03*
X138750000Y-101900000D03*
X138750000Y-103900000D03*
%TO.C,R2*%
X152760000Y-73750000D03*
%TO.C,R5*%
X152760000Y-123000000D03*
%TO.C,R1*%
X152880000Y-66500000D03*
%TO.C,R3*%
X152880000Y-81000000D03*
%TO.C,R4*%
X152880000Y-115900000D03*
%TO.C,R6*%
X152880000Y-129000000D03*
%TO.C,R2*%
X168000000Y-73750000D03*
%TO.C,R5*%
X168000000Y-123000000D03*
%TO.C,R1*%
X168120000Y-66500000D03*
%TO.C,R3*%
X168120000Y-81000000D03*
%TO.C,R4*%
X168120000Y-115900000D03*
%TO.C,R6*%
X168120000Y-129000000D03*
%TO.C,R7*%
X175630000Y-90380000D03*
X175630000Y-105620000D03*
D12*
%TO.C,D1*%
X193590000Y-98500000D03*
X196130000Y-98500000D03*
D13*
%TO.C,BT1*%
X79500000Y-102000000D03*
D14*
X99500000Y-102000000D03*
M02*
