%TF.GenerationSoftware,KiCad,Pcbnew,8.0.2*%
%TF.CreationDate,2024-05-23T15:12:35+02:00*%
%TF.ProjectId,gatemania_and,67617465-6d61-46e6-9961-5f616e642e6b,1.0*%
%TF.SameCoordinates,Original*%
%TF.FileFunction,Soldermask,Bot*%
%TF.FilePolarity,Negative*%
%FSLAX46Y46*%
G04 Gerber Fmt 4.6, Leading zero omitted, Abs format (unit mm)*
G04 Created by KiCad (PCBNEW 8.0.2) date 2024-05-23 15:12:35*
%MOMM*%
%LPD*%
G01*
G04 APERTURE LIST*
G04 Aperture macros list*
%AMRoundRect*
0 Rectangle with rounded corners*
0 $1 Rounding radius*
0 $2 $3 $4 $5 $6 $7 $8 $9 X,Y pos of 4 corners*
0 Add a 4 corners polygon primitive as box body*
4,1,4,$2,$3,$4,$5,$6,$7,$8,$9,$2,$3,0*
0 Add four circle primitives for the rounded corners*
1,1,$1+$1,$2,$3*
1,1,$1+$1,$4,$5*
1,1,$1+$1,$6,$7*
1,1,$1+$1,$8,$9*
0 Add four rect primitives between the rounded corners*
20,1,$1+$1,$2,$3,$4,$5,0*
20,1,$1+$1,$4,$5,$6,$7,0*
20,1,$1+$1,$6,$7,$8,$9,0*
20,1,$1+$1,$8,$9,$2,$3,0*%
G04 Aperture macros list end*
%ADD10C,1.600000*%
%ADD11O,1.600000X1.600000*%
%ADD12RoundRect,0.102000X-0.624000X-0.624000X0.624000X-0.624000X0.624000X0.624000X-0.624000X0.624000X0*%
%ADD13C,1.452000*%
%ADD14C,1.500000*%
%ADD15RoundRect,0.102000X0.654000X-0.654000X0.654000X0.654000X-0.654000X0.654000X-0.654000X-0.654000X0*%
%ADD16C,1.512000*%
%ADD17R,1.800000X1.800000*%
%ADD18C,1.800000*%
%ADD19C,2.454000*%
%ADD20C,1.959000*%
G04 APERTURE END LIST*
D10*
%TO.C,R7*%
X175630000Y-105620000D03*
D11*
X175630000Y-90380000D03*
%TD*%
D12*
%TO.C,U1*%
X156992500Y-91260000D03*
D13*
X156992500Y-93800000D03*
X156992500Y-96340000D03*
X156992500Y-98880000D03*
X156992500Y-101420000D03*
X156992500Y-103960000D03*
X156992500Y-106500000D03*
X164932500Y-106500000D03*
X164932500Y-103960000D03*
X164932500Y-101420000D03*
X164932500Y-98880000D03*
X164932500Y-96340000D03*
X164932500Y-93800000D03*
X164932500Y-91260000D03*
%TD*%
D14*
%TO.C,S4*%
X138750000Y-106000000D03*
X138750000Y-97800000D03*
D15*
X138750000Y-103900000D03*
D16*
X138750000Y-101900000D03*
X138750000Y-99900000D03*
%TD*%
D14*
%TO.C,S1*%
X110200000Y-106000000D03*
X110200000Y-97800000D03*
D15*
X110200000Y-103900000D03*
D16*
X110200000Y-101900000D03*
X110200000Y-99900000D03*
%TD*%
D14*
%TO.C,S3*%
X129233332Y-106000000D03*
X129233332Y-97800000D03*
D15*
X129233332Y-103900000D03*
D16*
X129233332Y-101900000D03*
X129233332Y-99900000D03*
%TD*%
D10*
%TO.C,R4*%
X152880000Y-115900000D03*
D11*
X168120000Y-115900000D03*
%TD*%
D17*
%TO.C,D1*%
X193590000Y-98500000D03*
D18*
X196130000Y-98500000D03*
%TD*%
D10*
%TO.C,R3*%
X152880000Y-81000000D03*
D11*
X168120000Y-81000000D03*
%TD*%
D10*
%TO.C,R1*%
X152880000Y-66500000D03*
D11*
X168120000Y-66500000D03*
%TD*%
D10*
%TO.C,R5*%
X168000000Y-123000000D03*
D11*
X152760000Y-123000000D03*
%TD*%
D10*
%TO.C,R2*%
X168000000Y-73750000D03*
D11*
X152760000Y-73750000D03*
%TD*%
D10*
%TO.C,R6*%
X152880000Y-129000000D03*
D11*
X168120000Y-129000000D03*
%TD*%
D19*
%TO.C,BT1*%
X99500000Y-102000000D03*
D20*
X79500000Y-102000000D03*
%TD*%
D14*
%TO.C,S2*%
X119716666Y-106000000D03*
X119716666Y-97800000D03*
D15*
X119716666Y-103900000D03*
D16*
X119716666Y-101900000D03*
X119716666Y-99900000D03*
%TD*%
M02*
